<svg version="1.1" viewBox="0.0 0.0 200.0 200.0" fill="none" stroke="none" stroke-linecap="square" stroke-miterlimit="10" xmlns:xlink="http://www.w3.org/1999/xlink" xmlns="http://www.w3.org/2000/svg"><clipPath id="p.0"><path d="m0 0l200.0 0l0 200.0l-200.0 0l0 -200.0z" clip-rule="nonzero"/></clipPath><g clip-path="url(#p.0)"><path fill="#000000" fill-opacity="0.0" d="m0 0l200.0 0l0 200.0l-200.0 0z" fill-rule="evenodd"/><path fill="#ffffff" d="m15.198698 33.045166l0 0c0 -15.611809 12.655872 -28.267681 28.267683 -28.267681l113.06734 0l0 0c7.497055 0 14.6870575 2.9781938 19.988266 8.279412c5.3012238 5.30122 8.279419 12.491215 8.279419 19.98827l0 133.91075c0 15.611801 -12.655869 28.26767 -28.267685 28.26767l-113.06734 0c-15.611811 0 -28.267683 -12.655869 -28.267683 -28.26767z" fill-rule="evenodd"/><path stroke="#000000" stroke-width="4.0" stroke-linejoin="round" stroke-linecap="butt" d="m15.198698 33.045166l0 0c0 -15.611809 12.655872 -28.267681 28.267683 -28.267681l113.06734 0l0 0c7.497055 0 14.6870575 2.9781938 19.988266 8.279412c5.3012238 5.30122 8.279419 12.491215 8.279419 19.98827l0 133.91075c0 15.611801 -12.655869 28.26767 -28.267685 28.26767l-113.06734 0c-15.611811 0 -28.267683 -12.655869 -28.267683 -28.26767z" fill-rule="evenodd"/><path fill="#000000" d="m36.8655 111.27628l0 0c0 -0.34197998 0.2772293 -0.6192093 0.6192093 -0.6192093l125.030685 0c0.16423035 0 0.3217163 0.06523895 0.43785095 0.18135834c0.116119385 0.116127014 0.18135071 0.2736206 0.18135071 0.43785095l0 2.4767532c0 0.34197998 -0.27722168 0.6192093 -0.61920166 0.6192093l-125.030685 0c-0.34197998 0 -0.6192093 -0.2772293 -0.6192093 -0.6192093z" fill-rule="evenodd"/><path stroke="#000000" stroke-width="2.0" stroke-linejoin="round" stroke-linecap="butt" d="m36.8655 111.27628l0 0c0 -0.34197998 0.2772293 -0.6192093 0.6192093 -0.6192093l125.030685 0c0.16423035 0 0.3217163 0.06523895 0.43785095 0.18135834c0.116119385 0.116127014 0.18135071 0.2736206 0.18135071 0.43785095l0 2.4767532c0 0.34197998 -0.27722168 0.6192093 -0.61920166 0.6192093l-125.030685 0c-0.34197998 0 -0.6192093 -0.2772293 -0.6192093 -0.6192093z" fill-rule="evenodd"/><path fill="#000000" fill-opacity="0.0" d="m150.71577 65.59024l-76.695724 0" fill-rule="evenodd"/><path stroke="#000000" stroke-width="3.0" stroke-linejoin="round" stroke-linecap="butt" d="m150.71577 65.59024l-65.32572 0" fill-rule="evenodd"/><path fill="#000000" stroke="#000000" stroke-width="3.0" stroke-linecap="butt" d="m75.52005 65.59024c0 -2.7255287 2.2094727 -4.9350014 4.9349976 -4.9350014c2.725525 0 4.9349976 2.2094727 4.9349976 4.9350014c0 2.725525 -2.2094727 4.9349976 -4.9349976 4.9349976c-2.725525 0 -4.9349976 -2.2094727 -4.9349976 -4.9349976z" fill-rule="nonzero"/><path fill="#000000" d="m80.460655 77.24163l0 0c0 -0.299263 0.24259186 -0.5418625 0.54185486 -0.5418625l2.1673584 0l0 0c0.14370728 0 0.2815323 0.05709076 0.3831482 0.15870667c0.101615906 0.101623535 0.15870667 0.23944092 0.15870667 0.38315582l0 17.642975c0 0.299263 -0.24259949 0.5418625 -0.54185486 0.5418625l-2.1673584 0c-0.299263 0 -0.54185486 -0.24259949 -0.54185486 -0.5418625z" fill-rule="evenodd"/><path stroke="#000000" stroke-width="1.0" stroke-linejoin="round" stroke-linecap="butt" d="m80.460655 77.24163l0 0c0 -0.299263 0.24259186 -0.5418625 0.54185486 -0.5418625l2.1673584 0l0 0c0.14370728 0 0.2815323 0.05709076 0.3831482 0.15870667c0.101615906 0.101623535 0.15870667 0.23944092 0.15870667 0.38315582l0 17.642975c0 0.299263 -0.24259949 0.5418625 -0.54185486 0.5418625l-2.1673584 0c-0.299263 0 -0.54185486 -0.24259949 -0.54185486 -0.5418625z" fill-rule="evenodd"/><path fill="#000000" d="m80.460655 36.301655l0 0c0 -0.29925537 0.24259186 -0.54185486 0.54185486 -0.54185486l2.1673584 0l0 0c0.14370728 0 0.2815323 0.05709076 0.3831482 0.15870667c0.101615906 0.101615906 0.15870667 0.23944092 0.15870667 0.3831482l0 17.642982c0 0.2992592 -0.24259949 0.54185486 -0.54185486 0.54185486l-2.1673584 0c-0.299263 0 -0.54185486 -0.24259567 -0.54185486 -0.54185486z" fill-rule="evenodd"/><path stroke="#000000" stroke-width="1.0" stroke-linejoin="round" stroke-linecap="butt" d="m80.460655 36.301655l0 0c0 -0.29925537 0.24259186 -0.54185486 0.54185486 -0.54185486l2.1673584 0l0 0c0.14370728 0 0.2815323 0.05709076 0.3831482 0.15870667c0.101615906 0.101615906 0.15870667 0.23944092 0.15870667 0.3831482l0 17.642982c0 0.2992592 -0.24259949 0.54185486 -0.54185486 0.54185486l-2.1673584 0c-0.299263 0 -0.54185486 -0.24259567 -0.54185486 -0.54185486z" fill-rule="evenodd"/><path fill="#000000" d="m69.83777 64.1453l0 0c0.26644135 0 0.4824295 0.21598816 0.4824295 0.4824295l0 1.9296646l0 0c0 0.12794495 -0.050827026 0.25065613 -0.14129639 0.34113312c-0.09047699 0.09046936 -0.21318054 0.14129639 -0.34113312 0.14129639l-20.068584 0c-0.26643753 0 -0.4824295 -0.21598816 -0.4824295 -0.4824295l0 -1.9296646c0 -0.26644135 0.21599197 -0.4824295 0.4824295 -0.4824295z" fill-rule="evenodd"/><path stroke="#000000" stroke-width="1.0" stroke-linejoin="round" stroke-linecap="butt" d="m69.83777 64.1453l0 0c0.26644135 0 0.4824295 0.21598816 0.4824295 0.4824295l0 1.9296646l0 0c0 0.12794495 -0.050827026 0.25065613 -0.14129639 0.34113312c-0.09047699 0.09046936 -0.21318054 0.14129639 -0.34113312 0.14129639l-20.068584 0c-0.26643753 0 -0.4824295 -0.21598816 -0.4824295 -0.4824295l0 -1.9296646c0 -0.26644135 0.21599197 -0.4824295 0.4824295 -0.4824295z" fill-rule="evenodd"/><path fill="#000000" d="m72.80198 73.32365l0 0c0.21311188 -0.18973541 0.5586319 -0.18973541 0.77173615 0l1.5434265 1.3741531l0 0c0.10233307 0.09111786 0.15982819 0.21469116 0.15982819 0.34355164c0 0.12885284 -0.057495117 0.25243378 -0.15982819 0.343544l-14.104382 12.5575485c-0.21311188 0.18973541 -0.5586281 0.18973541 -0.77173615 0l-1.5434227 -1.3741531c-0.21310806 -0.18974304 -0.21310806 -0.49736786 0 -0.6871033z" fill-rule="evenodd"/><path stroke="#000000" stroke-width="1.0" stroke-linejoin="round" stroke-linecap="butt" d="m72.80198 73.32365l0 0c0.21311188 -0.18973541 0.5586319 -0.18973541 0.77173615 0l1.5434265 1.3741531l0 0c0.10233307 0.09111786 0.15982819 0.21469116 0.15982819 0.34355164c0 0.12885284 -0.057495117 0.25243378 -0.15982819 0.343544l-14.104382 12.5575485c-0.21311188 0.18973541 -0.5586281 0.18973541 -0.77173615 0l-1.5434227 -1.3741531c-0.21310806 -0.18974304 -0.21310806 -0.49736786 0 -0.6871033z" fill-rule="evenodd"/><path fill="#000000" d="m89.05647 75.385l0 0c-0.21311188 -0.18973541 -0.21311188 -0.49736023 0 -0.68709564l1.5434189 -1.3741531l0 0c0.1023407 -0.09111786 0.24114227 -0.14230347 0.3858719 -0.14230347c0.14472198 0 0.28352356 0.051185608 0.38586426 0.14230347l14.104378 12.557541c0.21311188 0.18973541 0.21311188 0.49736023 0 0.68709564l-1.5434189 1.3741531c-0.21311188 0.18974304 -0.55862427 0.18974304 -0.77173615 0z" fill-rule="evenodd"/><path stroke="#000000" stroke-width="1.0" stroke-linejoin="round" stroke-linecap="butt" d="m89.05647 75.385l0 0c-0.21311188 -0.18973541 -0.21311188 -0.49736023 0 -0.68709564l1.5434189 -1.3741531l0 0c0.1023407 -0.09111786 0.24114227 -0.14230347 0.3858719 -0.14230347c0.14472198 0 0.28352356 0.051185608 0.38586426 0.14230347l14.104378 12.557541c0.21311188 0.18973541 0.21311188 0.49736023 0 0.68709564l-1.5434189 1.3741531c-0.21311188 0.18974304 -0.55862427 0.18974304 -0.77173615 0z" fill-rule="evenodd"/><path fill="#000000" d="m75.117256 55.80378l0 0c0.21311188 0.18973541 0.21311188 0.49736023 0 0.68709564l-1.5434189 1.374157l0 0c-0.1023407 0.091114044 -0.24114227 0.14229965 -0.3858719 0.14229965c-0.14472961 0 -0.2835312 -0.051185608 -0.38586426 -0.14229965l-14.104382 -12.557545c-0.21310806 -0.18973541 -0.21310806 -0.49736023 0 -0.68709564l1.5434227 -1.374157c0.21310806 -0.18973541 0.55862427 -0.18973541 0.77173233 0z" fill-rule="evenodd"/><path stroke="#000000" stroke-width="1.0" stroke-linejoin="round" stroke-linecap="butt" d="m75.117256 55.80378l0 0c0.21311188 0.18973541 0.21311188 0.49736023 0 0.68709564l-1.5434189 1.374157l0 0c-0.1023407 0.091114044 -0.24114227 0.14229965 -0.3858719 0.14229965c-0.14472961 0 -0.2835312 -0.051185608 -0.38586426 -0.14229965l-14.104382 -12.557545c-0.21310806 -0.18973541 -0.21310806 -0.49736023 0 -0.68709564l1.5434227 -1.374157c0.21310806 -0.18973541 0.55862427 -0.18973541 0.77173233 0z" fill-rule="evenodd"/><path fill="#000000" d="m91.37174 57.865135l0 0c-0.21310425 0.18973541 -0.55862427 0.18973541 -0.7717285 0l-1.5434265 -1.3741531l0 0c-0.1023407 -0.091114044 -0.15982819 -0.21469498 -0.15982819 -0.34355164c0 -0.12885284 0.057487488 -0.25243378 0.15982819 -0.34354782l14.104385 -12.557541c0.21310425 -0.18973541 0.55862427 -0.18973541 0.7717285 0l1.5434265 1.3741531c0.21310425 0.18973923 0.21310425 0.49736023 0 0.68709946z" fill-rule="evenodd"/><path stroke="#000000" stroke-width="1.0" stroke-linejoin="round" stroke-linecap="butt" d="m91.37174 57.865135l0 0c-0.21310425 0.18973541 -0.55862427 0.18973541 -0.7717285 0l-1.5434265 -1.3741531l0 0c-0.1023407 -0.091114044 -0.15982819 -0.21469498 -0.15982819 -0.34355164c0 -0.12885284 0.057487488 -0.25243378 0.15982819 -0.34354782l14.104385 -12.557541c0.21310425 -0.18973541 0.55862427 -0.18973541 0.7717285 0l1.5434265 1.3741531c0.21310425 0.18973923 0.21310425 0.49736023 0 0.68709946z" fill-rule="evenodd"/><path fill="#000000" d="m36.8655 128.57904l0 0c0 -0.34197998 0.2772293 -0.6192093 0.6192093 -0.6192093l125.030685 0c0.16423035 0 0.3217163 0.06523895 0.43785095 0.18135834c0.116119385 0.11613464 0.18135071 0.2736206 0.18135071 0.43785095l0 2.4767609c0 0.34197998 -0.27722168 0.61920166 -0.61920166 0.61920166l-125.030685 0c-0.34197998 0 -0.6192093 -0.27722168 -0.6192093 -0.61920166z" fill-rule="evenodd"/><path stroke="#000000" stroke-width="2.0" stroke-linejoin="round" stroke-linecap="butt" d="m36.8655 128.57904l0 0c0 -0.34197998 0.2772293 -0.6192093 0.6192093 -0.6192093l125.030685 0c0.16423035 0 0.3217163 0.06523895 0.43785095 0.18135834c0.116119385 0.11613464 0.18135071 0.2736206 0.18135071 0.43785095l0 2.4767609c0 0.34197998 -0.27722168 0.61920166 -0.61920166 0.61920166l-125.030685 0c-0.34197998 0 -0.6192093 -0.27722168 -0.6192093 -0.61920166z" fill-rule="evenodd"/><path fill="#000000" d="m36.8655 145.8818l0 0c0 -0.34197998 0.2772293 -0.6192169 0.6192093 -0.6192169l125.030685 0c0.16423035 0 0.3217163 0.06524658 0.43785095 0.18136597c0.116119385 0.116119385 0.18135071 0.2736206 0.18135071 0.43785095l0 2.4767609c0 0.34197998 -0.27722168 0.61920166 -0.61920166 0.61920166l-125.030685 0c-0.34197998 0 -0.6192093 -0.27722168 -0.6192093 -0.61920166z" fill-rule="evenodd"/><path stroke="#000000" stroke-width="2.0" stroke-linejoin="round" stroke-linecap="butt" d="m36.8655 145.8818l0 0c0 -0.34197998 0.2772293 -0.6192169 0.6192093 -0.6192169l125.030685 0c0.16423035 0 0.3217163 0.06524658 0.43785095 0.18136597c0.116119385 0.116119385 0.18135071 0.2736206 0.18135071 0.43785095l0 2.4767609c0 0.34197998 -0.27722168 0.61920166 -0.61920166 0.61920166l-125.030685 0c-0.34197998 0 -0.6192093 -0.27722168 -0.6192093 -0.61920166z" fill-rule="evenodd"/><path fill="#000000" d="m36.8655 163.18457l0 0c0 -0.34197998 0.2772293 -0.6192169 0.6192093 -0.6192169l125.030685 0c0.16423035 0 0.3217163 0.06524658 0.43785095 0.18136597c0.116119385 0.116119385 0.18135071 0.2736206 0.18135071 0.43785095l0 2.4767456c0 0.34197998 -0.27722168 0.6192169 -0.61920166 0.6192169l-125.030685 0c-0.34197998 0 -0.6192093 -0.27723694 -0.6192093 -0.6192169z" fill-rule="evenodd"/><path stroke="#000000" stroke-width="2.0" stroke-linejoin="round" stroke-linecap="butt" d="m36.8655 163.18457l0 0c0 -0.34197998 0.2772293 -0.6192169 0.6192093 -0.6192169l125.030685 0c0.16423035 0 0.3217163 0.06524658 0.43785095 0.18136597c0.116119385 0.116119385 0.18135071 0.2736206 0.18135071 0.43785095l0 2.4767456c0 0.34197998 -0.27722168 0.6192169 -0.61920166 0.6192169l-125.030685 0c-0.34197998 0 -0.6192093 -0.27723694 -0.6192093 -0.6192169z" fill-rule="evenodd"/><path fill="#000000" fill-opacity="0.0" d="m52.782413 20.18215l94.43529 0.34721184" fill-rule="evenodd"/><path stroke="#000000" stroke-width="4.0" stroke-linejoin="round" stroke-linecap="butt" stroke-dasharray="16.0,12.0" d="m52.782413 20.18215l94.43529 0.34721184" fill-rule="evenodd"/></g></svg>